<svg version="1.1" id="Layer_1" xmlns="http://www.w3.org/2000/svg" xmlns:xlink="http://www.w3.org/1999/xlink" x="0px" y="0px"
	 width="100%" viewBox="0 0 336 366" enable-background="new 0 0 336 366" xml:space="preserve">
<path fill="#000000" opacity="1.000000" stroke="none" 
	d="
M183.000000,367.000000 
	C122.000008,367.000000 61.500023,367.000000 1.000024,367.000000 
	C1.000016,245.000031 1.000016,123.000069 1.000008,1.000073 
	C112.999947,1.000049 224.999893,1.000049 336.999878,1.000025 
	C336.999939,122.999931 336.999939,244.999863 336.999969,366.999878 
	C285.833344,367.000000 234.666672,367.000000 183.000000,367.000000 
M123.009232,101.752518 
	C123.617447,102.226555 124.225655,102.700592 124.834023,103.882980 
	C124.834023,105.764229 124.834023,107.645470 124.834023,109.616661 
	C127.092499,109.386147 128.497086,109.242783 130.059006,109.699333 
	C130.676254,110.163078 131.293488,110.626831 132.066986,111.828171 
	C132.547134,113.658379 133.027298,115.488579 133.508072,117.318321 
	C134.938553,116.937912 136.369034,116.557510 137.932022,116.849739 
	C138.617676,118.245094 139.303345,119.640442 140.074249,121.757317 
	C140.189194,123.151428 140.902252,124.909386 140.314285,125.875885 
	C137.926834,129.800385 140.483917,131.450958 143.320816,132.522385 
	C147.199905,133.987442 151.288864,134.896896 155.633636,136.580444 
	C156.087585,137.273148 156.541550,137.965851 156.092407,138.811722 
	C142.988419,138.830017 129.884262,138.895676 116.780472,138.853516 
	C103.191841,138.809799 89.603539,138.661606 76.014427,137.771210 
	C76.130981,134.483322 76.029831,131.066345 72.031387,130.223038 
	C65.608841,128.868439 65.778557,135.762695 60.823223,138.238571 
	C64.016663,139.500839 65.782135,140.198669 67.832985,141.659332 
	C67.795509,142.741074 67.758034,143.822815 67.042259,144.926941 
	C67.269737,145.982635 67.497215,147.038330 67.858131,149.010498 
	C67.811211,174.975922 67.764290,200.941330 67.099617,226.885666 
	C67.285995,227.628494 67.472382,228.371338 67.770729,229.890015 
	C67.841133,230.930725 67.911530,231.971436 67.187714,233.006516 
	C62.140247,233.897522 64.512451,237.527557 64.237869,239.716232 
	C66.823891,240.439316 68.984261,241.111938 71.180092,241.636017 
	C72.984528,242.066681 74.831078,242.320953 77.220131,242.838669 
	C78.022034,243.335190 78.823929,243.831726 79.819519,244.178162 
	C79.819519,244.178162 79.668716,244.371292 79.594696,244.965012 
	C80.138901,245.537155 80.683105,246.109283 81.152496,247.414337 
	C83.142632,251.968842 86.310791,255.294815 91.644867,257.278717 
	C92.686661,257.964813 93.728455,258.650909 94.893570,259.665771 
	C94.893570,259.665771 95.011414,259.996552 94.411301,260.234009 
	C96.407066,261.994751 98.402832,263.755463 100.408142,265.603973 
	C100.408142,265.603973 100.496384,265.600403 100.299339,266.311584 
	C100.981140,266.800842 101.662941,267.290100 102.793564,268.169769 
	C103.553787,269.072601 104.314011,269.975464 105.008507,271.584930 
	C107.875809,274.166168 110.743111,276.747375 113.846107,279.981445 
	C115.264412,281.301910 116.682716,282.622406 118.692039,284.217499 
	C119.744743,284.936523 120.797447,285.655548 121.780823,286.705200 
	C121.780823,286.705200 121.863358,287.032806 121.387726,287.400269 
	C122.064133,287.756470 122.740532,288.112671 123.439995,288.564331 
	C123.439995,288.564331 123.537117,288.578644 123.296341,289.243591 
	C124.502098,290.525360 125.707863,291.807098 127.061890,293.717987 
	C127.944656,294.582184 128.827423,295.446381 129.919373,296.970886 
	C133.429550,299.784027 136.939713,302.597168 140.484848,305.521423 
	C140.484848,305.521423 140.582230,305.585358 140.256241,306.366760 
	C140.123627,308.729187 140.772980,310.263855 144.061066,309.973663 
	C145.649872,311.052155 147.238678,312.130676 148.759262,313.164062 
	C148.759262,313.164062 148.747528,313.244995 148.567612,313.651184 
	C148.567612,313.651184 148.734100,314.063049 148.341721,314.485687 
	C149.013840,314.847290 149.685959,315.208862 150.349350,315.647186 
	C150.349350,315.647186 150.426498,315.649963 150.261002,316.396149 
	C150.998993,316.736084 151.736984,317.076050 152.516800,317.520844 
	C152.516800,317.520844 152.628113,317.539581 152.291412,318.220490 
	C154.728302,321.146759 156.913193,324.347748 159.694321,326.898712 
	C161.429092,328.489929 161.833084,328.049500 162.002106,324.272186 
	C161.902420,323.814362 161.802719,323.356506 161.851639,321.985168 
	C161.851639,292.412170 161.851639,262.839172 161.851639,232.876831 
	C171.127029,232.876831 179.596283,232.848740 188.065308,232.882462 
	C208.042267,232.961975 228.019135,233.070923 247.991501,233.927475 
	C249.010468,239.863617 254.069489,239.136887 258.695282,240.715454 
	C258.152191,238.705902 257.813843,237.453979 257.421326,236.001633 
	C258.911560,235.395477 260.233704,234.857681 262.063171,234.113541 
	C260.153625,230.021210 258.287872,226.022766 256.096161,221.325729 
	C254.368439,224.084015 253.209015,225.935013 251.577744,227.715805 
	C251.308731,227.522278 251.126572,227.266815 251.097473,226.203552 
	C248.610733,223.895737 246.124008,221.587921 243.016617,219.108902 
	C242.259674,218.753586 241.502731,218.398270 240.748062,217.705521 
	C240.748062,217.705521 240.779282,217.369537 240.920609,216.630081 
	C239.714432,215.303574 238.508270,213.977051 237.160263,211.970230 
	C235.279175,208.593796 233.421661,205.188614 228.262451,204.832733 
	C227.290924,204.110306 226.319412,203.387878 225.011536,202.965698 
	C225.011536,202.965698 225.335037,202.651321 225.264145,201.975250 
	C223.883438,200.576889 222.502731,199.178528 220.991318,197.268860 
	C220.547714,197.015350 220.104111,196.761841 219.651642,195.950912 
	C219.544235,195.604446 219.436829,195.257980 219.801544,194.444427 
	C218.529510,193.632675 217.257477,192.820938 215.427567,191.753540 
	C214.727844,191.391983 214.028107,191.030441 213.007309,191.003006 
	C213.007309,191.003006 213.332657,190.672012 213.393250,190.126480 
	C213.228790,189.801270 213.064331,189.476074 212.995056,188.402924 
	C212.009460,187.592484 211.023865,186.782028 210.008148,185.988800 
	C210.008148,185.988800 210.028183,185.955826 210.105713,185.202011 
	C208.936111,180.300552 205.429184,178.080902 200.276047,176.799103 
	C199.027283,175.375504 197.778503,173.951904 196.779633,171.780991 
	C194.365845,169.657455 191.952072,167.533920 189.196152,165.339645 
	C189.196152,165.339645 188.963104,165.079346 189.023102,164.339920 
	C186.056061,161.185547 183.089020,158.031158 179.937683,154.202225 
	C176.632080,151.465027 173.326477,148.727829 169.781174,145.723145 
	C169.781174,145.723145 169.724747,145.368423 169.873260,144.612061 
	C168.789062,143.910736 167.704865,143.209412 166.565842,142.421402 
	C166.565842,142.421402 166.467712,142.391571 166.752594,141.597473 
	C166.843796,140.761612 166.934998,139.925766 167.943436,138.900192 
	C194.956879,138.948563 221.970322,138.996948 248.945282,139.578842 
	C249.199387,139.801865 249.453476,140.024887 249.707581,140.247910 
	C249.810608,139.847900 249.913635,139.447876 250.732864,138.889771 
	C251.459427,138.816116 252.185989,138.742462 253.718765,139.012772 
	C258.567871,137.341370 255.403397,133.704727 255.874512,130.005264 
	C255.874512,101.763794 255.874512,73.522316 255.874512,44.844589 
	C253.095642,44.844589 250.962555,44.844482 248.829468,44.844604 
	C197.879547,44.847572 146.929611,44.843716 95.979698,44.863747 
	C90.659012,44.865837 85.338379,45.009300 79.506691,44.811501 
	C79.333000,44.896900 79.159309,44.982304 78.133896,44.855865 
	C76.097710,44.945049 74.061516,45.034237 71.382935,44.858215 
	C70.922783,44.910469 70.462631,44.962719 69.639915,44.493446 
	C68.568504,44.891319 67.497101,45.289192 66.425690,45.687065 
	C67.307404,46.727985 68.189117,47.768909 68.783775,49.437397 
	C67.262581,49.974758 65.741386,50.512119 63.046349,51.464142 
	C64.808640,53.197544 66.119316,55.605145 67.658630,55.761459 
	C70.608307,56.061005 73.687866,55.081654 77.294044,54.762920 
	C78.232101,55.787537 79.170166,56.812157 79.990768,58.578072 
	C83.410988,62.285137 86.818970,66.003807 90.290443,69.662231 
	C90.450439,69.830849 91.180115,69.458893 92.117119,69.595009 
	C92.452911,70.002838 92.788704,70.410675 92.990273,71.550179 
	C94.804016,72.836845 96.617760,74.123512 98.488045,75.517525 
	C98.488045,75.517525 98.594582,75.575577 98.336662,76.288078 
	C99.033546,76.673233 99.730431,77.058380 100.462387,77.544662 
	C100.462387,77.544662 100.563507,77.579765 100.284721,78.264099 
	C101.620773,79.450974 102.956818,80.637856 104.807678,82.213394 
	C107.880646,85.128723 110.953621,88.044052 113.959274,91.714188 
	C114.754456,92.407135 115.549637,93.100082 116.467384,93.960640 
	C116.467384,93.960640 116.471786,94.168236 116.204163,95.080742 
	C116.348282,97.274063 116.492401,99.467384 116.682854,102.365959 
	C118.740494,100.777603 119.761841,99.989189 121.013000,99.763100 
	C121.624084,100.228821 122.235168,100.694534 123.009232,101.752518 
z"/>
<path fill="#FEFEFE" opacity="1.000000" stroke="none" 
	d="
M67.720558,144.904556 
	C67.758034,143.822815 67.795509,142.741074 67.796677,141.412689 
	C67.760376,141.166061 68.083084,141.048630 68.405151,141.035553 
	C69.161430,140.379990 69.595650,139.737518 70.453720,139.010681 
	C72.590073,138.803925 74.302589,138.681503 76.015099,138.559097 
	C89.603539,138.661606 103.191841,138.809799 116.780472,138.853516 
	C129.884262,138.895676 142.988419,138.830017 156.796173,138.920792 
	C158.333649,139.023346 159.167389,139.016846 160.170624,139.302826 
	C162.289185,141.915710 164.077713,144.404236 166.256363,146.484146 
	C167.314041,147.493896 169.102097,147.738617 170.618439,148.363998 
	C170.677353,148.398331 170.734299,148.522278 170.493225,148.808929 
	C170.502777,149.724197 170.753403,150.352798 171.002930,151.367584 
	C171.481308,153.594681 171.960800,155.435623 172.440292,157.276550 
	C172.146530,157.227173 171.852753,157.177780 171.558990,157.128403 
	C171.318405,158.928726 171.077805,160.729034 170.837204,162.529358 
	C172.896957,162.798218 174.965729,163.326752 177.013657,163.255508 
	C178.718231,163.196259 180.398300,162.432632 182.317200,162.240387 
	C183.185669,162.398788 183.826187,162.297760 184.560699,162.267441 
	C184.654709,162.338165 184.803314,162.520554 184.613754,162.851715 
	C185.291412,163.781387 186.158615,164.379883 187.012604,164.988892 
	C186.999390,164.999390 187.021347,164.973038 186.973846,165.299591 
	C187.013031,166.057449 187.099716,166.488739 186.872452,167.124695 
	C182.493271,172.498001 187.042221,176.739624 189.535278,179.328186 
	C192.295151,182.193771 197.082718,185.705795 202.465698,182.095139 
	C204.161194,182.876129 205.588257,183.433701 207.275391,184.130768 
	C207.998856,184.890366 208.462234,185.510468 208.806702,186.334106 
	C208.687759,186.537643 208.529739,186.981842 208.166290,187.003983 
	C205.092834,189.588577 204.860031,192.481461 206.097672,195.885635 
	C213.476761,192.684235 217.474518,196.612000 216.600006,206.037292 
	C218.598724,206.037292 220.544785,206.037292 223.166412,206.037292 
	C223.345291,207.531845 223.581818,209.508179 223.764801,211.037018 
	C225.328247,212.189941 227.091614,212.937378 228.019501,214.267593 
	C232.736496,221.029861 232.660706,221.082733 240.029449,219.197495 
	C240.078430,219.392288 240.108475,219.792801 240.029388,220.160873 
	C237.602676,223.482254 237.166550,225.724777 241.959488,226.166351 
	C243.709946,226.327606 245.444794,226.658234 247.493622,227.047348 
	C248.834656,229.024704 249.868835,230.866318 250.533417,232.759979 
	C249.441208,232.930649 248.718628,233.049301 247.996033,233.167953 
	C228.019135,233.070923 208.042267,232.961975 188.065308,232.882462 
	C179.596283,232.848740 171.127029,232.876831 161.851639,232.876831 
	C161.851639,262.839172 161.851639,292.412170 161.448853,322.380554 
	C158.745361,321.153015 156.444672,319.530121 153.901672,317.779205 
	C153.315628,317.613983 152.971878,317.576782 152.628113,317.539581 
	C152.628113,317.539581 152.516800,317.520844 152.563690,317.383972 
	C152.610580,317.247131 152.557983,317.036926 152.736145,316.748047 
	C151.525391,315.387787 150.136459,314.316406 148.747528,313.244995 
	C148.747528,313.244995 148.759262,313.164062 148.823090,312.831116 
	C143.917343,307.336426 138.947754,302.174652 133.976959,296.618866 
	C133.582108,291.298309 129.819809,290.629700 126.038429,289.970215 
	C126.018967,289.979858 126.036667,289.938843 126.059669,289.553955 
	C126.168121,286.374451 124.899948,284.888367 121.862732,284.668732 
	C120.436394,283.598816 119.164284,282.823517 117.759758,281.964294 
	C117.627342,281.880402 117.558289,281.574585 117.674583,281.190308 
	C117.366264,277.791412 115.944756,275.989655 112.574783,276.485931 
	C112.555290,276.437042 112.458839,276.394836 112.596687,276.040833 
	C111.512154,274.778320 110.289772,273.869751 108.791565,272.873505 
	C107.990807,272.227325 107.465889,271.668854 106.952484,270.749237 
	C105.170013,267.174866 103.376030,263.961670 101.642990,260.857605 
	C101.082474,261.525696 100.282265,262.479431 99.217964,263.244324 
	C97.639717,262.035828 96.325569,261.016174 95.011414,259.996552 
	C95.011414,259.996552 94.893570,259.665771 94.895790,259.141724 
	C91.804359,255.604004 88.710709,252.590378 85.573288,249.518677 
	C85.529526,249.460602 85.444824,249.342377 85.575035,248.993683 
	C85.294151,247.285172 84.883057,245.925369 84.413231,244.371292 
	C82.772408,244.371292 81.220566,244.371292 79.668716,244.371292 
	C79.668716,244.371292 79.819519,244.178162 79.818420,243.903427 
	C78.459656,242.470047 77.101997,241.311401 75.660980,240.048126 
	C75.577621,239.943497 75.660126,239.688965 75.761581,239.302856 
	C75.730751,237.630798 75.528442,236.347534 75.478699,235.058395 
	C75.295654,230.314499 73.217354,228.225540 68.228012,227.681625 
	C67.978638,227.230835 67.848007,227.068787 67.717361,226.906754 
	C67.764290,200.941330 67.811211,174.975922 67.965698,148.172668 
	C67.955696,146.524750 67.838127,145.714661 67.720558,144.904556 
z"/>
<path fill="#FEFEFE" opacity="1.000000" stroke="none" 
	d="
M80.017731,45.087166 
	C85.338379,45.009300 90.659012,44.865837 95.979698,44.863747 
	C146.929611,44.843716 197.879547,44.847572 248.829468,44.844604 
	C250.962555,44.844482 253.095642,44.844589 255.874512,44.844589 
	C255.874512,73.522316 255.874512,101.763794 255.451477,130.471558 
	C254.323135,133.514832 253.617844,136.091812 252.912552,138.668793 
	C252.185989,138.742462 251.459427,138.816116 250.116913,138.819427 
	C249.328552,138.847839 249.156158,138.946594 248.983765,139.045334 
	C221.970322,138.996948 194.956879,138.948563 167.112320,138.839447 
	C165.227386,138.951721 164.173553,139.124756 163.102020,138.957428 
	C162.230698,138.059708 161.377121,137.502335 160.282333,136.729843 
	C159.329987,135.717056 158.618851,134.919403 157.975128,133.753296 
	C155.030975,130.588409 152.019409,127.791962 148.745331,124.819504 
	C147.775116,124.269157 147.067383,123.894806 146.348999,123.374123 
	C146.338364,123.227798 146.317978,122.935089 146.527618,122.733566 
	C146.053192,122.139626 145.369125,121.747215 144.770172,121.250443 
	C144.855286,121.146080 144.646591,121.316345 144.749695,120.948746 
	C142.900452,118.061592 140.948090,115.542023 138.998428,112.591003 
	C138.992203,110.846199 139.464050,109.223991 138.864197,108.290260 
	C137.910339,106.805435 136.369247,105.545685 134.803223,104.692291 
	C134.284622,104.409683 132.923386,105.673325 131.582825,106.168510 
	C130.728821,106.127579 130.239395,106.148140 129.602524,106.051643 
	C129.455078,105.934578 129.359940,105.570259 129.530945,105.236755 
	C128.613098,103.347244 127.524246,101.791229 126.654160,99.958160 
	C127.028656,98.989815 127.184395,98.298515 127.340126,97.607216 
	C125.913689,97.998863 124.487244,98.390518 122.726311,98.704781 
	C122.231453,98.464058 122.071098,98.300728 121.897743,98.055756 
	C121.884750,97.974098 121.587021,97.899879 121.267731,97.798813 
	C120.567055,97.170609 120.185669,96.643471 120.161896,96.093193 
	C121.577843,95.440575 122.636177,94.811104 123.694519,94.181633 
	C123.346703,93.796860 122.998886,93.412094 122.651070,93.027328 
	C121.728210,94.083954 120.805359,95.140587 119.558113,96.098129 
	C118.313080,95.388779 117.392433,94.778503 116.471786,94.168236 
	C116.471786,94.168236 116.467384,93.960640 116.485847,93.575577 
	C116.416206,92.786537 116.328094,92.382561 116.457291,91.763748 
	C114.501190,85.864525 109.940231,82.920074 104.321243,80.719521 
	C103.750526,79.978943 103.380653,79.478180 103.038177,78.613037 
	C100.483513,72.941200 96.674126,68.955872 90.738869,66.920929 
	C90.225533,66.627861 90.052399,66.357567 90.020935,65.642380 
	C88.604233,63.248772 87.463470,60.881439 85.646111,59.283707 
	C82.607506,56.612335 79.136765,54.432503 75.733963,51.960564 
	C75.620018,51.875351 75.644806,51.591854 75.751190,51.181259 
	C74.681908,49.994625 73.506233,49.218586 72.191505,48.388653 
	C72.052452,48.334759 71.986908,48.043777 72.047775,47.681931 
	C72.080879,46.587860 72.053101,45.855640 72.025330,45.123421 
	C74.061516,45.034237 76.097710,44.945049 78.548630,45.224525 
	C79.209023,45.816242 79.454674,46.039295 79.700333,46.262348 
	C79.806137,45.870621 79.911934,45.478893 80.017731,45.087166 
M127.270164,93.491539 
	C127.375908,92.942703 127.481651,92.393867 127.587387,91.845016 
	C127.201393,91.839241 126.815407,91.833466 126.429413,91.827698 
	C126.520119,92.379578 126.610825,92.931450 127.270164,93.491539 
z"/>
<path fill="#F7F7F7" opacity="1.000000" stroke="none" 
	d="
M239.980469,219.002701 
	C232.660706,221.082733 232.736496,221.029861 228.019501,214.267593 
	C227.091614,212.937378 225.328247,212.189941 223.764801,211.037018 
	C223.581818,209.508179 223.345291,207.531845 223.166412,206.037292 
	C220.544785,206.037292 218.598724,206.037292 216.600006,206.037292 
	C217.474518,196.612000 213.476761,192.684235 206.097672,195.885635 
	C204.860031,192.481461 205.092834,189.588577 208.365158,187.313965 
	C210.395859,188.625214 211.864258,189.648621 213.332657,190.672012 
	C213.332657,190.672012 213.007309,191.003006 213.086456,191.192505 
	C215.330582,193.090790 217.495544,194.799561 219.660507,196.508331 
	C220.104111,196.761841 220.547714,197.015350 220.985901,197.917465 
	C221.525284,200.894302 221.799652,203.510818 225.335037,202.651321 
	C225.335037,202.651321 225.011536,202.965698 225.075165,203.170044 
	C228.264435,206.103775 231.390076,208.833176 234.771225,211.659882 
	C235.355209,212.164368 235.683670,212.571548 235.966034,213.346451 
	C236.679489,214.435867 237.439072,215.157547 238.464081,216.037811 
	C239.412766,216.587433 240.096024,216.978485 240.779282,217.369537 
	C240.779282,217.369537 240.748062,217.705521 240.514465,217.909180 
	C240.140381,218.395828 240.040253,218.692444 239.980469,219.002701 
z"/>
<path fill="#050505" opacity="1.000000" stroke="none" 
	d="
M146.317978,122.935089 
	C146.317978,122.935089 146.338364,123.227798 146.227570,123.733566 
	C147.069382,124.831863 148.021988,125.424400 149.277069,126.153442 
	C151.682693,128.603958 153.785812,130.917969 155.844009,133.536438 
	C155.628662,134.575439 155.458252,135.309982 155.287857,136.044510 
	C151.288864,134.896896 147.199905,133.987442 143.320816,132.522385 
	C140.483917,131.450958 137.926834,129.800385 140.314285,125.875885 
	C140.902252,124.909386 140.189194,123.151428 140.408020,121.392136 
	C141.493576,121.018349 142.245346,121.009735 143.278320,121.066551 
	C143.921875,121.193428 144.284225,121.254890 144.646591,121.316345 
	C144.646591,121.316345 144.855286,121.146080 144.790833,121.580086 
	C145.256897,122.321098 145.787445,122.628098 146.317978,122.935089 
z"/>
<path fill="#050505" opacity="1.000000" stroke="none" 
	d="
M247.993774,233.547714 
	C248.718628,233.049301 249.441208,232.930649 250.896332,232.930756 
	C252.429947,233.039658 253.231003,233.029800 254.365646,233.068359 
	C255.298523,232.785278 255.897827,232.453796 256.497131,232.122314 
	C255.975754,231.759567 255.454376,231.396820 254.649872,230.881912 
	C253.594360,229.748505 252.821976,228.767258 252.049591,227.786011 
	C253.209015,225.935013 254.368439,224.084015 256.096161,221.325729 
	C258.287872,226.022766 260.153625,230.021210 262.063171,234.113541 
	C260.233704,234.857681 258.911560,235.395477 257.421326,236.001633 
	C257.813843,237.453979 258.152191,238.705902 258.695282,240.715454 
	C254.069489,239.136887 249.010468,239.863617 247.993774,233.547714 
z"/>
<path fill="#050505" opacity="1.000000" stroke="none" 
	d="
M76.014763,138.165146 
	C74.302589,138.681503 72.590073,138.803925 70.084091,138.867035 
	C68.888107,139.554718 68.485596,140.301682 68.083084,141.048630 
	C68.083084,141.048630 67.760376,141.166061 67.653992,141.031281 
	C65.782135,140.198669 64.016663,139.500839 60.823223,138.238571 
	C65.778557,135.762695 65.608841,128.868439 72.031387,130.223038 
	C76.029831,131.066345 76.130981,134.483322 76.014763,138.165146 
z"/>
<path fill="#050505" opacity="1.000000" stroke="none" 
	d="
M75.660126,239.688965 
	C75.660126,239.688965 75.577621,239.943497 75.623840,240.391678 
	C75.999695,241.444382 76.329323,242.048904 76.658951,242.653412 
	C74.831078,242.320953 72.984528,242.066681 71.180092,241.636017 
	C68.984261,241.111938 66.823891,240.439316 64.237869,239.716232 
	C64.512451,237.527557 62.140247,233.897522 67.593445,232.928101 
	C67.999176,232.849701 68.161728,232.833344 68.116486,233.181580 
	C68.747772,233.998230 69.424301,234.466644 70.359177,235.051483 
	C71.097473,235.748489 71.577415,236.329086 72.059036,237.257217 
	C72.764114,238.031235 73.467522,238.457703 74.431221,239.002548 
	C75.014381,239.310272 75.337250,239.499619 75.660126,239.688965 
z"/>
<path fill="#050505" opacity="1.000000" stroke="none" 
	d="
M75.644806,51.591854 
	C75.644806,51.591854 75.620018,51.875351 75.682755,52.311737 
	C76.068176,53.376396 76.390854,54.004673 76.713531,54.632946 
	C73.687866,55.081654 70.608307,56.061005 67.658630,55.761459 
	C66.119316,55.605145 64.808640,53.197544 63.046349,51.464142 
	C65.741386,50.512119 67.262581,49.974758 69.230469,49.135269 
	C70.123718,48.514286 70.570267,48.195431 71.249626,47.974731 
	C71.650597,48.063183 71.818748,48.053478 71.986908,48.043777 
	C71.986908,48.043777 72.052452,48.334759 72.315048,48.700691 
	C73.600029,49.908367 74.622421,50.750111 75.644806,51.591854 
z"/>
<path fill="#C9C9C9" opacity="1.000000" stroke="none" 
	d="
M207.015320,183.991272 
	C205.588257,183.433701 204.161194,182.876129 202.259811,181.818695 
	C199.552856,179.829681 197.320236,178.340515 195.058136,176.569244 
	C194.749649,175.813110 194.470627,175.339066 194.032257,174.556763 
	C193.464203,172.951752 193.055466,171.654999 192.769196,170.232422 
	C192.891647,170.106613 193.135651,169.854095 193.431763,169.961121 
	C194.661835,170.888214 195.595779,171.708267 196.529724,172.528320 
	C197.778503,173.951904 199.027283,175.375504 200.627274,177.290588 
	C202.990768,179.851807 205.003036,181.921539 207.015320,183.991272 
z"/>
<path fill="#E8E8E8" opacity="1.000000" stroke="none" 
	d="
M72.057358,236.909683 
	C71.577415,236.329086 71.097473,235.748489 70.359604,234.726974 
	C69.455032,233.801819 68.808380,233.317581 68.161728,232.833344 
	C68.161728,232.833344 67.999176,232.849701 67.990555,232.930923 
	C67.911530,231.971436 67.841133,230.930725 67.905205,229.227234 
	C68.142044,228.366440 68.244400,228.168411 68.346756,227.970383 
	C73.217354,228.225540 75.295654,230.314499 75.478699,235.058395 
	C75.528442,236.347534 75.730751,237.630798 75.761581,239.302856 
	C75.337250,239.499619 75.014381,239.310272 74.390747,238.678940 
	C73.412445,237.794540 72.734901,237.352112 72.057358,236.909683 
z"/>
<path fill="#D0D0D0" opacity="1.000000" stroke="none" 
	d="
M133.978165,297.012909 
	C138.947754,302.174652 143.917343,307.336426 148.857208,312.853699 
	C147.238678,312.130676 145.649872,311.052155 143.753723,309.421570 
	C142.491669,307.774780 141.536957,306.680054 140.582230,305.585358 
	C140.582230,305.585358 140.484848,305.521423 140.421387,305.138611 
	C137.945053,302.397125 135.532150,300.038483 133.212769,297.514587 
	C133.497070,297.170959 133.721039,297.058807 133.978165,297.012909 
z"/>
<path fill="#D8D8D8" opacity="1.000000" stroke="none" 
	d="
M77.003784,54.697933 
	C76.390854,54.004673 76.068176,53.376396 75.796707,52.396950 
	C79.136765,54.432503 82.607506,56.612335 85.646111,59.283707 
	C87.463470,60.881439 88.604233,63.248772 89.698814,65.546173 
	C86.268410,63.160374 83.188316,60.498573 80.108223,57.836773 
	C79.170166,56.812157 78.232101,55.787537 77.003784,54.697933 
z"/>
<path fill="#D8D8D8" opacity="1.000000" stroke="none" 
	d="
M104.522079,80.959328 
	C109.940231,82.920074 114.501190,85.864525 116.171661,91.630585 
	C115.121361,91.461288 114.573975,91.210335 114.026596,90.959381 
	C110.953621,88.044052 107.880646,85.128723 104.653107,81.814789 
	C104.498528,81.416191 104.522079,80.959328 104.522079,80.959328 
z"/>
<path fill="#D8D8D8" opacity="1.000000" stroke="none" 
	d="
M90.965599,67.016396 
	C96.674126,68.955872 100.483513,72.941200 102.762680,78.505112 
	C101.827698,78.367622 101.195602,77.973694 100.563507,77.579765 
	C100.563507,77.579765 100.462387,77.544662 100.447044,77.194313 
	C99.819328,76.421173 99.206955,75.998375 98.594582,75.575577 
	C98.594582,75.575577 98.488045,75.517525 98.438667,75.133102 
	C96.634361,73.438622 94.879425,72.128563 93.124496,70.818504 
	C92.788704,70.410675 92.452911,70.002838 91.854721,69.157990 
	C91.383415,68.152771 91.174507,67.584587 90.965599,67.016396 
z"/>
<path fill="#3D3D3D" opacity="1.000000" stroke="none" 
	d="
M90.738869,66.920929 
	C91.174507,67.584587 91.383415,68.152771 91.618393,69.029831 
	C91.180115,69.458893 90.450439,69.830849 90.290443,69.662231 
	C86.818970,66.003807 83.410988,62.285137 80.049500,58.207420 
	C83.188316,60.498573 86.268410,63.160374 89.670624,65.918381 
	C90.052399,66.357567 90.225533,66.627861 90.738869,66.920929 
z"/>
<path fill="#C7C7C7" opacity="1.000000" stroke="none" 
	d="
M160.523529,136.944962 
	C161.377121,137.502335 162.230698,138.059708 163.341095,139.125107 
	C164.554489,140.552612 165.511108,141.472092 166.467712,142.391571 
	C166.467712,142.391571 166.565842,142.421402 166.681061,142.761749 
	C167.772430,143.857544 168.748596,144.612991 169.724747,145.368423 
	C169.724747,145.368423 169.781174,145.723145 169.870026,146.161987 
	C170.159073,147.177124 170.359299,147.753387 170.559509,148.329666 
	C169.102097,147.738617 167.314041,147.493896 166.256363,146.484146 
	C164.077713,144.404236 162.289185,141.915710 160.279556,138.963852 
	C160.320496,137.869919 160.422012,137.407440 160.523529,136.944962 
z"/>
<path fill="#353535" opacity="1.000000" stroke="none" 
	d="
M180.121979,154.876770 
	C183.089020,158.031158 186.056061,161.185547 188.665985,164.741852 
	C187.879700,165.086868 187.450516,165.029953 187.021347,164.973038 
	C187.021347,164.973038 186.999390,164.999390 187.010117,164.684982 
	C186.281662,163.753906 185.542496,163.137222 184.803314,162.520554 
	C184.803314,162.520554 184.654709,162.338165 184.520859,162.011658 
	C183.873596,161.238602 183.360184,160.792038 182.742538,160.036438 
	C181.533463,158.387695 180.428635,157.048019 179.523132,155.500244 
	C179.855637,155.153702 179.988800,155.015244 180.121979,154.876770 
z"/>
<path fill="#333333" opacity="1.000000" stroke="none" 
	d="
M152.459763,317.880035 
	C152.971878,317.576782 153.315628,317.613983 153.932892,318.119202 
	C156.792343,320.722992 159.378281,322.858734 161.964233,324.994507 
	C161.833084,328.049500 161.429092,328.489929 159.694321,326.898712 
	C156.913193,324.347748 154.728302,321.146759 152.459763,317.880035 
z"/>
<path fill="#353535" opacity="1.000000" stroke="none" 
	d="
M170.618439,148.363998 
	C170.359299,147.753387 170.159073,147.177124 169.989868,146.295746 
	C173.326477,148.727829 176.632080,151.465027 180.029831,154.539490 
	C179.988800,155.015244 179.855637,155.153702 179.224060,155.360474 
	C176.872925,153.915009 175.020248,152.401215 173.107224,150.585495 
	C172.276016,149.696472 171.505157,149.109375 170.734299,148.522278 
	C170.734299,148.522278 170.677353,148.398331 170.618439,148.363998 
z"/>
<path fill="#171717" opacity="1.000000" stroke="none" 
	d="
M129.359940,105.570259 
	C129.359940,105.570259 129.455078,105.934578 129.568573,106.358902 
	C129.986618,107.318321 130.291153,107.853432 130.422241,108.566315 
	C130.248810,108.744087 129.901688,109.099419 129.901688,109.099426 
	C128.497086,109.242783 127.092499,109.386147 124.834023,109.616661 
	C124.834023,107.645470 124.834023,105.764229 124.962006,103.398102 
	C125.089981,102.913216 125.348175,102.653854 125.648727,102.746895 
	C127.086174,103.750046 128.223053,104.660149 129.359940,105.570259 
z"/>
<path fill="#353535" opacity="1.000000" stroke="none" 
	d="
M91.088684,256.942047 
	C86.310791,255.294815 83.142632,251.968842 81.517303,247.044250 
	C83.069687,247.563568 84.257256,248.452972 85.444824,249.342377 
	C85.444824,249.342377 85.529526,249.460602 85.689606,249.819122 
	C87.596008,252.432449 89.342346,254.687256 91.088684,256.942047 
z"/>
<path fill="#D0D0D0" opacity="1.000000" stroke="none" 
	d="
M99.482056,263.433167 
	C100.282265,262.479431 101.082474,261.525696 101.642990,260.857605 
	C103.376030,263.961670 105.170013,267.174866 106.633751,270.748657 
	C105.893745,271.032227 105.483994,270.955261 105.074234,270.878296 
	C104.314011,269.975464 103.553787,269.072601 102.590561,267.643005 
	C101.757172,266.610992 101.126778,266.105713 100.496384,265.600403 
	C100.496384,265.600403 100.408142,265.603973 100.383881,265.269501 
	C100.067093,264.434418 99.774574,263.933777 99.482056,263.433167 
z"/>
<path fill="#171717" opacity="1.000000" stroke="none" 
	d="
M137.799515,116.177109 
	C136.369034,116.557510 134.938553,116.937912 133.507751,117.318558 
	C133.027298,115.488579 132.547134,113.658379 132.160858,111.279861 
	C132.254730,110.731544 132.598129,110.371902 132.893860,110.514832 
	C134.128891,111.099602 135.068192,111.541428 136.139069,112.139000 
	C136.587219,112.546761 136.903793,112.798775 137.152481,113.293228 
	C137.510040,114.252281 137.935486,114.968910 138.220886,115.808792 
	C138.080856,115.932037 137.799515,116.177109 137.799515,116.177109 
z"/>
<path fill="#BCBCBC" opacity="1.000000" stroke="none" 
	d="
M91.366776,257.110382 
	C89.342346,254.687256 87.596008,252.432449 85.733368,249.877197 
	C88.710709,252.590378 91.804359,255.604004 94.834129,258.977325 
	C93.728455,258.650909 92.686661,257.964813 91.366776,257.110382 
z"/>
<path fill="#333333" opacity="1.000000" stroke="none" 
	d="
M207.275391,184.130768 
	C205.003036,181.921539 202.990768,179.851807 200.903442,177.449188 
	C205.429184,178.080902 208.936111,180.300552 209.787964,185.601471 
	C209.288681,186.044144 209.107162,186.087357 208.925629,186.130569 
	C208.462234,185.510468 207.998856,184.890366 207.275391,184.130768 
z"/>
<path fill="#353535" opacity="1.000000" stroke="none" 
	d="
M133.119263,297.679840 
	C135.532150,300.038483 137.945053,302.397125 140.403915,305.083038 
	C136.939713,302.597168 133.429550,299.784027 129.974289,296.481720 
	C130.029205,295.992554 130.355698,295.682220 130.621170,295.799866 
	C131.630844,296.504944 132.375061,297.092407 133.119263,297.679840 
z"/>
<path fill="#C9C9C9" opacity="1.000000" stroke="none" 
	d="
M234.515717,211.562576 
	C231.390076,208.833176 228.264435,206.103775 225.243347,203.019928 
	C226.319412,203.387878 227.290924,204.110306 228.666428,205.289673 
	C230.885513,207.685272 232.700623,209.623917 234.515717,211.562576 
z"/>
<path fill="#353535" opacity="1.000000" stroke="none" 
	d="
M105.041367,271.231628 
	C105.483994,270.955261 105.893745,271.032227 106.622238,271.109802 
	C107.465889,271.668854 107.990807,272.227325 108.901306,273.164307 
	C110.344200,274.493469 111.401520,275.444153 112.458839,276.394836 
	C112.458839,276.394836 112.555290,276.437042 112.678406,276.749084 
	C113.256599,277.653015 113.711678,278.244843 114.029297,278.961517 
	C113.891838,279.086334 113.610420,279.328613 113.610420,279.328613 
	C110.743111,276.747375 107.875809,274.166168 105.041367,271.231628 
z"/>
<path fill="#BCBCBC" opacity="1.000000" stroke="none" 
	d="
M254.032074,233.019958 
	C253.231003,233.029800 252.429947,233.039658 251.265945,232.878723 
	C249.868835,230.866318 248.834656,229.024704 247.464630,226.658401 
	C247.224304,225.624969 247.319855,225.116241 247.740784,224.621048 
	C249.054550,225.406189 250.042908,226.177795 251.031281,226.949387 
	C251.126572,227.266815 251.308731,227.522278 251.813660,227.750916 
	C252.821976,228.767258 253.594360,229.748505 254.539490,231.131134 
	C254.485504,232.028336 254.258789,232.524155 254.032074,233.019958 
z"/>
<path fill="#171717" opacity="1.000000" stroke="none" 
	d="
M116.337975,94.624489 
	C117.392433,94.778503 118.313080,95.388779 119.582275,96.035645 
	C119.930817,96.072235 119.804283,96.116341 119.804283,96.116341 
	C120.185669,96.643471 120.567055,97.170609 121.131927,97.982834 
	C121.315414,98.267929 121.248123,98.720329 121.133499,98.842003 
	C121.018875,98.963676 120.783195,99.200783 120.783195,99.200783 
	C119.761841,99.989189 118.740494,100.777603 116.682854,102.365959 
	C116.492401,99.467384 116.348282,97.274063 116.337975,94.624489 
z"/>
<path fill="#333333" opacity="1.000000" stroke="none" 
	d="
M251.064377,226.576477 
	C250.042908,226.177795 249.054550,225.406189 247.569855,224.345703 
	C245.891724,222.760590 244.709915,221.464371 243.579605,219.949112 
	C243.631104,219.730072 243.637268,219.280106 243.637268,219.280106 
	C246.124008,221.587921 248.610733,223.895737 251.064377,226.576477 
z"/>
<path fill="#333333" opacity="1.000000" stroke="none" 
	d="
M234.771225,211.659882 
	C232.700623,209.623917 230.885513,207.685272 228.946136,205.434769 
	C233.421661,205.188614 235.279175,208.593796 237.130341,212.426941 
	C237.100433,212.883636 236.895416,213.109467 236.681305,213.031403 
	C236.467209,212.953354 236.012146,212.978714 236.012146,212.978714 
	C235.683670,212.571548 235.355209,212.164368 234.771225,211.659882 
z"/>
<path fill="#BCBCBC" opacity="1.000000" stroke="none" 
	d="
M161.983170,324.633362 
	C159.378281,322.858734 156.792343,320.722992 154.175171,318.247192 
	C156.444672,319.530121 158.745361,321.153015 161.374542,322.837311 
	C161.802719,323.356506 161.902420,323.814362 161.983170,324.633362 
z"/>
<path fill="#353535" opacity="1.000000" stroke="none" 
	d="
M196.654678,172.154663 
	C195.595779,171.708267 194.661835,170.888214 193.267334,169.687988 
	C191.717285,168.008667 190.627792,166.709518 189.538284,165.410385 
	C191.952072,167.533920 194.365845,169.657455 196.654678,172.154663 
z"/>
<path fill="#BCBCBC" opacity="1.000000" stroke="none" 
	d="
M85.575035,248.993683 
	C84.257256,248.452972 83.069687,247.563568 81.554718,246.677795 
	C80.683105,246.109283 80.138901,245.537155 79.631706,244.668152 
	C81.220566,244.371292 82.772408,244.371292 84.413231,244.371292 
	C84.883057,245.925369 85.294151,247.285172 85.575035,248.993683 
z"/>
<path fill="#3D3D3D" opacity="1.000000" stroke="none" 
	d="
M71.016815,47.876579 
	C70.570267,48.195431 70.123718,48.514286 69.374001,48.821487 
	C68.189117,47.768909 67.307404,46.727985 66.425690,45.687065 
	C67.497101,45.289192 68.568504,44.891319 69.894241,45.055195 
	C70.437973,46.370155 70.727394,47.123367 71.016815,47.876579 
z"/>
<path fill="#353535" opacity="1.000000" stroke="none" 
	d="
M99.217964,263.244324 
	C99.774574,263.933777 100.067093,264.434418 100.379105,265.225616 
	C98.402832,263.755463 96.407066,261.994751 94.711357,260.115295 
	C96.325569,261.016174 97.639717,262.035828 99.217964,263.244324 
z"/>
<path fill="#454545" opacity="1.000000" stroke="none" 
	d="
M160.282333,136.729843 
	C160.422012,137.407440 160.320496,137.869919 160.110046,138.671356 
	C159.167389,139.016846 158.333649,139.023346 157.247711,138.844208 
	C156.541550,137.965851 156.087585,137.273148 155.460754,136.312469 
	C155.458252,135.309982 155.628662,134.575439 156.126923,133.567352 
	C156.939072,133.569778 157.423386,133.845749 157.907700,134.121735 
	C158.618851,134.919403 159.329987,135.717056 160.282333,136.729843 
z"/>
<path fill="#C7C7C7" opacity="1.000000" stroke="none" 
	d="
M253.315659,138.840790 
	C253.617844,136.091812 254.323135,133.514832 255.366180,130.927856 
	C255.403397,133.704727 258.567871,137.341370 253.315659,138.840790 
z"/>
<path fill="#C9C9C9" opacity="1.000000" stroke="none" 
	d="
M189.367218,165.375015 
	C190.627792,166.709518 191.717285,168.008667 192.971222,169.580963 
	C193.135651,169.854095 192.891647,170.106613 192.462555,170.117737 
	C190.417770,169.059235 188.802078,167.989639 187.186401,166.920029 
	C187.099716,166.488739 187.013031,166.057449 186.973846,165.299591 
	C187.450516,165.029953 187.879700,165.086868 188.635986,165.111572 
	C188.963104,165.079346 189.196152,165.339645 189.367218,165.375015 
z"/>
<path fill="#C9C9C9" opacity="1.000000" stroke="none" 
	d="
M219.656067,196.229614 
	C217.495544,194.799561 215.330582,193.090790 213.246994,191.025452 
	C214.028107,191.030441 214.727844,191.391983 215.787537,192.207214 
	C217.208145,193.411102 218.268768,194.161316 219.329407,194.911514 
	C219.436829,195.257980 219.544235,195.604446 219.656067,196.229614 
z"/>
<path fill="#C9C9C9" opacity="1.000000" stroke="none" 
	d="
M225.299591,202.313293 
	C221.799652,203.510818 221.525284,200.894302 221.051270,198.173111 
	C222.502731,199.178528 223.883438,200.576889 225.299591,202.313293 
z"/>
<path fill="#D8D8D8" opacity="1.000000" stroke="none" 
	d="
M122.016960,284.963348 
	C124.899948,284.888367 126.168121,286.374451 125.779808,289.453491 
	C124.830338,289.351471 124.183723,288.965057 123.537117,288.578644 
	C123.537117,288.578644 123.439995,288.564331 123.404129,288.204468 
	C122.866631,287.574005 122.364990,287.303406 121.863358,287.032806 
	C121.863358,287.032806 121.780823,286.705200 121.866318,286.188171 
	C121.973526,285.435181 121.995239,285.199280 122.016960,284.963348 
z"/>
<path fill="#171717" opacity="1.000000" stroke="none" 
	d="
M142.997131,121.001129 
	C142.245346,121.009735 141.493576,121.018349 140.365387,121.031380 
	C139.303345,119.640442 138.617676,118.245094 137.865768,116.513428 
	C137.799515,116.177109 138.080856,115.932037 138.504776,115.965805 
	C140.284836,117.666748 141.640991,119.333939 142.997131,121.001129 
z"/>
<path fill="#3D3D3D" opacity="1.000000" stroke="none" 
	d="
M93.057388,71.184341 
	C94.879425,72.128563 96.634361,73.438622 98.410400,75.079430 
	C96.617760,74.123512 94.804016,72.836845 93.057388,71.184341 
z"/>
<path fill="#353535" opacity="1.000000" stroke="none" 
	d="
M117.558289,281.574585 
	C117.558289,281.574585 117.627342,281.880402 117.752823,282.287262 
	C117.952538,283.110382 118.026772,283.526611 118.101013,283.942871 
	C116.682716,282.622406 115.264412,281.301910 113.728264,279.655029 
	C113.610420,279.328613 113.891838,279.086334 114.324280,279.087616 
	C115.690575,279.917450 116.624428,280.746033 117.558289,281.574585 
z"/>
<path fill="#D0D0D0" opacity="1.000000" stroke="none" 
	d="
M118.396530,284.080200 
	C118.026772,283.526611 117.952538,283.110382 117.885239,282.371155 
	C119.164284,282.823517 120.436394,283.598816 121.862732,284.668732 
	C121.995239,285.199280 121.973526,285.435181 121.900978,286.022827 
	C120.797447,285.655548 119.744743,284.936523 118.396530,284.080200 
z"/>
<path fill="#BCBCBC" opacity="1.000000" stroke="none" 
	d="
M76.939545,242.746033 
	C76.329323,242.048904 75.999695,241.444382 75.707199,240.496307 
	C77.101997,241.311401 78.459656,242.470047 79.721573,243.978470 
	C78.823929,243.831726 78.022034,243.335190 76.939545,242.746033 
z"/>
<path fill="#BCBCBC" opacity="1.000000" stroke="none" 
	d="
M148.657562,313.448090 
	C150.136459,314.316406 151.525391,315.387787 152.476532,316.550476 
	C151.501328,316.311188 150.963913,315.980560 150.426514,315.649963 
	C150.426498,315.649963 150.349350,315.647186 150.306427,315.294495 
	C149.753693,314.648895 149.243896,314.355957 148.734100,314.063049 
	C148.734100,314.063049 148.567612,313.651184 148.657562,313.448090 
z"/>
<path fill="#353535" opacity="1.000000" stroke="none" 
	d="
M140.419235,305.976074 
	C141.536957,306.680054 142.491669,307.774780 143.515137,309.189941 
	C140.772980,310.263855 140.123627,308.729187 140.419235,305.976074 
z"/>
<path fill="#333333" opacity="1.000000" stroke="none" 
	d="
M240.849945,216.999817 
	C240.096024,216.978485 239.412766,216.587433 238.418610,215.728271 
	C237.703613,214.543259 237.299515,213.826370 236.895416,213.109467 
	C236.895416,213.109467 237.100433,212.883636 237.201263,212.767090 
	C238.508270,213.977051 239.714432,215.303574 240.849945,216.999817 
z"/>
<path fill="#333333" opacity="1.000000" stroke="none" 
	d="
M219.565475,194.677979 
	C218.268768,194.161316 217.208145,193.411102 216.066467,192.335052 
	C217.257477,192.820938 218.529510,193.632675 219.565475,194.677979 
z"/>
<path fill="#C9C9C9" opacity="1.000000" stroke="none" 
	d="
M208.806702,186.334106 
	C209.107162,186.087357 209.288681,186.044144 209.749191,185.978394 
	C210.028183,185.955826 210.008148,185.988800 210.050018,186.302505 
	C211.027893,187.461105 211.963882,188.305984 212.899872,189.150864 
	C213.064331,189.476074 213.228790,189.801270 213.362946,190.399246 
	C211.864258,189.648621 210.395859,188.625214 208.728607,187.291824 
	C208.529739,186.981842 208.687759,186.537643 208.806702,186.334106 
z"/>
<path fill="#3D3D3D" opacity="1.000000" stroke="none" 
	d="
M100.424118,77.921936 
	C101.195602,77.973694 101.827698,78.367622 102.735283,78.869476 
	C103.380653,79.478180 103.750526,79.978943 104.321243,80.719521 
	C104.522079,80.959328 104.498528,81.416191 104.395699,81.620461 
	C102.956818,80.637856 101.620773,79.450974 100.424118,77.921936 
z"/>
<path fill="#353535" opacity="1.000000" stroke="none" 
	d="
M166.610153,141.994522 
	C165.511108,141.472092 164.554489,140.552612 163.358810,139.465454 
	C164.173553,139.124756 165.227386,138.951721 166.653702,138.934296 
	C166.934998,139.925766 166.843796,140.761612 166.610153,141.994522 
z"/>
<path fill="#353535" opacity="1.000000" stroke="none" 
	d="
M123.416733,288.911133 
	C124.183723,288.965057 124.830338,289.351471 125.756805,289.838379 
	C126.036667,289.938843 126.018967,289.979858 126.119919,290.249329 
	C126.689552,291.124969 127.158234,291.731171 127.448685,292.525330 
	C127.151505,292.838501 127.032562,292.963684 126.913620,293.088867 
	C125.707863,291.807098 124.502098,290.525360 123.416733,288.911133 
z"/>
<path fill="#353535" opacity="1.000000" stroke="none" 
	d="
M129.869690,296.151550 
	C128.827423,295.446381 127.944656,294.582184 126.987755,293.403442 
	C127.032562,292.963684 127.151505,292.838501 127.738518,292.653320 
	C128.922958,293.622986 129.639328,294.652588 130.355698,295.682220 
	C130.355698,295.682220 130.029205,295.992554 129.869690,296.151550 
z"/>
<path fill="#353535" opacity="1.000000" stroke="none" 
	d="
M169.799011,144.990234 
	C168.748596,144.612991 167.772430,143.857544 166.708466,142.805099 
	C167.704865,143.209412 168.789062,143.910736 169.799011,144.990234 
z"/>
<path fill="#333333" opacity="1.000000" stroke="none" 
	d="
M212.947464,188.776886 
	C211.963882,188.305984 211.027893,187.461105 210.065094,186.293900 
	C211.023865,186.782028 212.009460,187.592484 212.947464,188.776886 
z"/>
<path fill="#BCBCBC" opacity="1.000000" stroke="none" 
	d="
M243.326935,219.194504 
	C243.637268,219.280106 243.631104,219.730072 243.235046,220.001190 
	C241.928833,220.112473 241.018646,219.952621 240.108475,219.792786 
	C240.108475,219.792801 240.078430,219.392288 240.029449,219.197495 
	C240.040253,218.692444 240.140381,218.395828 240.513321,218.077896 
	C241.502731,218.398270 242.259674,218.753586 243.326935,219.194504 
z"/>
<path fill="#454545" opacity="1.000000" stroke="none" 
	d="
M67.381409,144.915741 
	C67.838127,145.714661 67.955696,146.524750 67.898987,147.714447 
	C67.497215,147.038330 67.269737,145.982635 67.381409,144.915741 
z"/>
<path fill="#3D3D3D" opacity="1.000000" stroke="none" 
	d="
M113.992935,91.336784 
	C114.573975,91.210335 115.121361,91.461288 115.954361,91.845413 
	C116.328094,92.382561 116.416206,92.786537 116.424561,93.491776 
	C115.549637,93.100082 114.754456,92.407135 113.992935,91.336784 
z"/>
<path fill="#D8D8D8" opacity="1.000000" stroke="none" 
	d="
M71.249626,47.974731 
	C70.727394,47.123367 70.437973,46.370155 70.075516,45.315956 
	C70.462631,44.962719 70.922783,44.910469 71.704132,44.990818 
	C72.053101,45.855640 72.080879,46.587860 72.047775,47.681931 
	C71.818748,48.053478 71.650597,48.063183 71.249626,47.974731 
z"/>
<path fill="#333333" opacity="1.000000" stroke="none" 
	d="
M148.537903,314.274353 
	C149.243896,314.355957 149.753693,314.648895 150.310791,315.256134 
	C149.685959,315.208862 149.013840,314.847290 148.537903,314.274353 
z"/>
<path fill="#333333" opacity="1.000000" stroke="none" 
	d="
M150.343750,316.023041 
	C150.963913,315.980560 151.501328,316.311188 152.298370,316.839355 
	C152.557983,317.036926 152.610580,317.247131 152.542786,317.331573 
	C151.736984,317.076050 150.998993,316.736084 150.343750,316.023041 
z"/>
<path fill="#353535" opacity="1.000000" stroke="none" 
	d="
M121.625534,287.216553 
	C122.364990,287.303406 122.866631,287.574005 123.392593,288.156738 
	C122.740532,288.112671 122.064133,287.756470 121.625534,287.216553 
z"/>
<path fill="#3D3D3D" opacity="1.000000" stroke="none" 
	d="
M98.465622,75.931824 
	C99.206955,75.998375 99.819328,76.421173 100.429512,77.143745 
	C99.730431,77.058380 99.033546,76.673233 98.465622,75.931824 
z"/>
<path fill="#353535" opacity="1.000000" stroke="none" 
	d="
M100.397858,265.955994 
	C101.126778,266.105713 101.757172,266.610992 102.366150,267.447815 
	C101.662941,267.290100 100.981140,266.800842 100.397858,265.955994 
z"/>
<path fill="#171717" opacity="1.000000" stroke="none" 
	d="
M132.082733,110.911064 
	C131.293488,110.626831 130.676254,110.163078 129.980347,109.399376 
	C129.901688,109.099419 130.248810,108.744087 130.676666,108.698578 
	C131.602371,109.226013 132.100250,109.798958 132.598129,110.371902 
	C132.598129,110.371902 132.254730,110.731544 132.082733,110.911064 
z"/>
<path fill="#171717" opacity="1.000000" stroke="none" 
	d="
M124.961929,103.043930 
	C124.225655,102.700592 123.617447,102.226555 123.082138,101.296364 
	C123.155037,100.840210 123.462334,100.523132 123.728531,100.574028 
	C124.326096,100.760475 124.657463,100.896027 124.992760,101.312347 
	C125.113853,101.946693 125.231018,102.300270 125.348175,102.653854 
	C125.348175,102.653854 125.089981,102.913216 124.961929,103.043930 
z"/>
<path fill="#171717" opacity="1.000000" stroke="none" 
	d="
M121.910736,98.137405 
	C122.071098,98.300728 122.231453,98.464058 122.759468,99.003922 
	C123.238861,99.761345 123.350601,100.142242 123.462341,100.523132 
	C123.462334,100.523132 123.155037,100.840210 123.000641,101.000229 
	C122.235168,100.694534 121.624084,100.228821 120.898102,99.481941 
	C120.783195,99.200783 121.018875,98.963676 121.330162,98.731522 
	C121.641449,98.499367 121.910736,98.137405 121.910736,98.137405 
z"/>
<path fill="#454545" opacity="1.000000" stroke="none" 
	d="
M68.228012,227.681625 
	C68.244400,228.168411 68.142044,228.366440 67.849228,228.839325 
	C67.472382,228.371338 67.285995,227.628494 67.408493,226.896210 
	C67.848007,227.068787 67.978638,227.230835 68.228012,227.681625 
z"/>
<path fill="#D8D8D8" opacity="1.000000" stroke="none" 
	d="
M79.762207,44.949333 
	C79.911934,45.478893 79.806137,45.870621 79.700333,46.262348 
	C79.454674,46.039295 79.209023,45.816242 78.974495,45.330444 
	C79.159309,44.982304 79.333000,44.896900 79.762207,44.949333 
z"/>
<path fill="#3D3D3D" opacity="1.000000" stroke="none" 
	d="
M248.964523,139.312088 
	C249.156158,138.946594 249.328552,138.847839 249.758804,138.898483 
	C249.913635,139.447876 249.810608,139.847900 249.707581,140.247910 
	C249.453476,140.024887 249.199387,139.801865 248.964523,139.312088 
z"/>
<path fill="#F7F7F7" opacity="1.000000" stroke="none" 
	d="
M173.167572,150.887421 
	C175.020248,152.401215 176.872925,153.915009 179.024704,155.568558 
	C180.428635,157.048019 181.533463,158.387695 182.502655,160.422302 
	C182.274399,161.405167 182.181808,161.693085 182.089233,161.980988 
	C180.398300,162.432632 178.718231,163.196259 177.013657,163.255508 
	C174.965729,163.326752 172.896957,162.798218 170.837204,162.529358 
	C171.077805,160.729034 171.318405,158.928726 171.558990,157.128403 
	C171.852753,157.177780 172.146530,157.227173 172.440292,157.276550 
	C171.960800,155.435623 171.481308,153.594681 171.363907,151.354950 
	C172.206528,150.933228 172.687042,150.910324 173.167572,150.887421 
z"/>
<path fill="#F7F7F7" opacity="1.000000" stroke="none" 
	d="
M186.872437,167.124695 
	C188.802078,167.989639 190.417770,169.059235 192.340088,170.243546 
	C193.055466,171.654999 193.464203,172.951752 193.703217,174.714920 
	C192.752258,176.065598 191.971024,176.949860 191.189804,177.834137 
	C191.764984,178.334076 192.754074,179.334991 192.850403,179.255402 
	C193.687073,178.564117 194.363525,177.678894 195.087616,176.851349 
	C197.320236,178.340515 199.552856,179.829681 201.991364,181.595276 
	C197.082718,185.705795 192.295151,182.193771 189.535278,179.328186 
	C187.042221,176.739624 182.493271,172.498001 186.872437,167.124695 
z"/>
<path fill="#F7F7F7" opacity="1.000000" stroke="none" 
	d="
M240.029388,220.160858 
	C241.018646,219.952621 241.928833,220.112473 243.183563,220.220230 
	C244.709915,221.464371 245.891724,222.760590 247.244461,224.332153 
	C247.319855,225.116241 247.224304,225.624969 247.157761,226.522659 
	C245.444794,226.658234 243.709946,226.327606 241.959488,226.166351 
	C237.166550,225.724777 237.602676,223.482254 240.029388,220.160858 
z"/>
<path fill="#D8D8D8" opacity="1.000000" stroke="none" 
	d="
M130.621170,295.799866 
	C129.639328,294.652588 128.922958,293.622986 127.916748,292.465363 
	C127.158234,291.731171 126.689552,291.124969 126.139389,290.239685 
	C129.819809,290.629700 133.582108,291.298309 133.976959,296.618866 
	C133.721039,297.058807 133.497070,297.170959 133.212769,297.514587 
	C132.375061,297.092407 131.630844,296.504944 130.621170,295.799866 
z"/>
<path fill="#D0D0D0" opacity="1.000000" stroke="none" 
	d="
M117.674583,281.190308 
	C116.624428,280.746033 115.690575,279.917450 114.461731,278.962799 
	C113.711678,278.244843 113.256599,277.653015 112.697899,276.797974 
	C115.944756,275.989655 117.366264,277.791412 117.674583,281.190308 
z"/>
<path fill="#D0D0D0" opacity="1.000000" stroke="none" 
	d="
M112.596687,276.040833 
	C111.401520,275.444153 110.344200,274.493469 109.177139,273.252014 
	C110.289772,273.869751 111.512154,274.778320 112.596687,276.040833 
z"/>
<path fill="#C7C7C7" opacity="1.000000" stroke="none" 
	d="
M173.107224,150.585480 
	C172.687042,150.910324 172.206528,150.933228 171.365021,150.968765 
	C170.753403,150.352798 170.502777,149.724197 170.493225,148.808929 
	C171.505157,149.109375 172.276016,149.696472 173.107224,150.585480 
z"/>
<path fill="#C9C9C9" opacity="1.000000" stroke="none" 
	d="
M184.613754,162.851715 
	C185.542496,163.137222 186.281662,163.753906 187.023331,164.674469 
	C186.158615,164.379883 185.291412,163.781387 184.613754,162.851715 
z"/>
<path fill="#C9C9C9" opacity="1.000000" stroke="none" 
	d="
M182.317200,162.240402 
	C182.181808,161.693085 182.274399,161.405167 182.606873,160.731354 
	C183.360184,160.792038 183.873596,161.238602 184.426849,161.940948 
	C183.826187,162.297760 183.185669,162.398788 182.317200,162.240402 
z"/>
<path fill="#C7C7C7" opacity="1.000000" stroke="none" 
	d="
M68.405151,141.035553 
	C68.485596,140.301682 68.888107,139.554718 69.660248,138.951401 
	C69.595650,139.737518 69.161430,140.379990 68.405151,141.035553 
z"/>
<path fill="#F7F7F7" opacity="1.000000" stroke="none" 
	d="
M137.220367,113.050797 
	C136.903793,112.798775 136.587219,112.546761 136.135117,111.804657 
	C134.648880,109.619705 133.298157,107.924858 131.947418,106.230011 
	C132.923386,105.673325 134.284622,104.409683 134.803223,104.692291 
	C136.369247,105.545685 137.910339,106.805435 138.864197,108.290260 
	C139.464050,109.223991 138.992203,110.846199 138.553986,112.558647 
	C137.811356,112.988762 137.515869,113.019775 137.220367,113.050797 
z"/>
<path fill="#BCBCBC" opacity="1.000000" stroke="none" 
	d="
M137.152481,113.293228 
	C137.515869,113.019775 137.811356,112.988762 138.551270,112.990112 
	C140.948090,115.542023 142.900452,118.061592 144.749695,120.948746 
	C144.284225,121.254890 143.921875,121.193428 143.278320,121.066551 
	C141.640991,119.333939 140.284836,117.666748 138.644806,115.842552 
	C137.935486,114.968910 137.510040,114.252281 137.152481,113.293228 
z"/>
<path fill="#C7C7C7" opacity="1.000000" stroke="none" 
	d="
M157.975128,133.753296 
	C157.423386,133.845749 156.939072,133.569778 156.171844,133.262878 
	C153.785812,130.917969 151.682693,128.603958 149.294479,125.898376 
	C149.008865,125.336380 149.008347,125.165939 149.007828,124.995506 
	C152.019409,127.791962 155.030975,130.588409 157.975128,133.753296 
z"/>
<path fill="#BCBCBC" opacity="1.000000" stroke="none" 
	d="
M131.582825,106.168510 
	C133.298157,107.924858 134.648880,109.619705 136.003555,111.648911 
	C135.068192,111.541428 134.128891,111.099602 132.893860,110.514832 
	C132.100250,109.798958 131.602371,109.226013 130.850098,108.520798 
	C130.291153,107.853432 129.986618,107.318321 129.716034,106.475967 
	C130.239395,106.148140 130.728821,106.127579 131.582825,106.168510 
z"/>
<path fill="#BCBCBC" opacity="1.000000" stroke="none" 
	d="
M125.648735,102.746895 
	C125.231018,102.300270 125.113853,101.946693 125.082703,101.093475 
	C125.590927,100.474281 126.013153,100.354744 126.435387,100.235199 
	C127.524246,101.791229 128.613098,103.347244 129.530945,105.236755 
	C128.223053,104.660149 127.086174,103.750046 125.648735,102.746895 
z"/>
<path fill="#D8D8D8" opacity="1.000000" stroke="none" 
	d="
M126.654160,99.958160 
	C126.013153,100.354744 125.590927,100.474281 125.078766,100.812698 
	C124.657463,100.896027 124.326096,100.760475 123.728539,100.574028 
	C123.350601,100.142242 123.238861,99.761345 123.093964,99.081314 
	C124.487244,98.390518 125.913689,97.998863 127.340126,97.607216 
	C127.184395,98.298515 127.028656,98.989815 126.654160,99.958160 
z"/>
<path fill="#D8D8D8" opacity="1.000000" stroke="none" 
	d="
M119.906662,96.134727 
	C120.805359,95.140587 121.728210,94.083954 122.651070,93.027328 
	C122.998886,93.412094 123.346703,93.796860 123.694519,94.181633 
	C122.636177,94.811104 121.577843,95.440575 120.161896,96.093193 
	C119.804283,96.116341 119.930817,96.072235 119.906662,96.134727 
z"/>
<path fill="#D8D8D8" opacity="1.000000" stroke="none" 
	d="
M75.751190,51.181259 
	C74.622421,50.750111 73.600029,49.908367 72.454102,48.754585 
	C73.506233,49.218586 74.681908,49.994625 75.751190,51.181259 
z"/>
<path fill="#D8D8D8" opacity="1.000000" stroke="none" 
	d="
M126.985847,93.487434 
	C126.610825,92.931450 126.520119,92.379578 126.429413,91.827698 
	C126.815407,91.833466 127.201393,91.839241 127.587387,91.845016 
	C127.481651,92.393867 127.375908,92.942703 126.985847,93.487434 
z"/>
<path fill="#454545" opacity="1.000000" stroke="none" 
	d="
M148.745331,124.819504 
	C149.008347,125.165939 149.008865,125.336380 148.991974,125.761871 
	C148.021988,125.424400 147.069382,124.831863 146.238220,123.879890 
	C147.067383,123.894806 147.775116,124.269157 148.745331,124.819504 
z"/>
<path fill="#BCBCBC" opacity="1.000000" stroke="none" 
	d="
M146.527618,122.733566 
	C145.787445,122.628098 145.256897,122.321098 144.705719,121.684448 
	C145.369125,121.747215 146.053192,122.139626 146.527618,122.733566 
z"/>
<path fill="#D8D8D8" opacity="1.000000" stroke="none" 
	d="
M121.897743,98.055756 
	C121.910736,98.137405 121.641449,98.499367 121.444786,98.609848 
	C121.248123,98.720329 121.315414,98.267929 121.451218,98.083908 
	C121.587021,97.899879 121.884750,97.974098 121.897743,98.055756 
z"/>
<path fill="#C9C9C9" opacity="1.000000" stroke="none" 
	d="
M236.681305,213.031403 
	C237.299515,213.826370 237.703613,214.543259 238.153168,215.569702 
	C237.439072,215.157547 236.679489,214.435867 235.966034,213.346451 
	C236.012146,212.978714 236.467209,212.953354 236.681305,213.031403 
z"/>
<path fill="#333333" opacity="1.000000" stroke="none" 
	d="
M254.365646,233.068359 
	C254.258789,232.524155 254.485504,232.028336 254.822617,231.283295 
	C255.454376,231.396820 255.975754,231.759567 256.497131,232.122314 
	C255.897827,232.453796 255.298523,232.785278 254.365646,233.068359 
z"/>
<path fill="#454545" opacity="1.000000" stroke="none" 
	d="
M72.059029,237.257217 
	C72.734901,237.352112 73.412445,237.794540 74.130463,238.560562 
	C73.467522,238.457703 72.764114,238.031235 72.059029,237.257217 
z"/>
<path fill="#454545" opacity="1.000000" stroke="none" 
	d="
M68.116486,233.181580 
	C68.808380,233.317581 69.455032,233.801819 70.101257,234.610565 
	C69.424301,234.466644 68.747772,233.998230 68.116486,233.181580 
z"/>
<path fill="#FEFEFE" opacity="1.000000" stroke="none" 
	d="
M195.058136,176.569244 
	C194.363525,177.678894 193.687073,178.564117 192.850403,179.255402 
	C192.754074,179.334991 191.764984,178.334076 191.189804,177.834137 
	C191.971024,176.949860 192.752258,176.065598 193.862549,175.023193 
	C194.470627,175.339066 194.749649,175.813110 195.058136,176.569244 
z"/>
</svg>